<?xml version="1.0" encoding="UTF-8"?>
<svg version="1.1" xmlns="http://www.w3.org/2000/svg" width="232" height="205">
<path d="M0 0 C0 6.6 0 13.2 0 20 C-7.625 20.75 -7.625 20.75 -9.99072266 20.95605469 C-14.91445625 21.50855285 -18.15552786 22.6732648 -22 26 C-26.15362655 31.82579192 -26.56551434 36.31535278 -26.50390625 43.359375 C-26.51332748 44.34440002 -26.52274872 45.32942505 -26.53245544 46.34429932 C-26.56100264 49.47974607 -26.5641889 52.61443418 -26.5625 55.75 C-26.56612702 58.87117297 -26.57589446 61.99179418 -26.60325623 65.112854 C-26.61982483 67.04845344 -26.62309723 68.98423316 -26.61024475 70.91986084 C-26.68966807 81.27591848 -28.76234109 90.32842869 -36 98 C-37.93602503 99.79993256 -39.89315846 101.3947874 -42 103 C-41.48050781 103.32871094 -40.96101563 103.65742187 -40.42578125 103.99609375 C-32.77701062 109.21309257 -28.82645296 115.9208328 -27 125 C-26.71156044 128.58495355 -26.69931279 132.15866396 -26.69140625 135.75390625 C-26.66625913 137.84570607 -26.64086093 139.93750288 -26.61523438 142.02929688 C-26.58645682 145.30329694 -26.56241572 148.57724511 -26.54370117 151.85131836 C-26.52203008 155.02744241 -26.4826067 158.20298424 -26.44140625 161.37890625 C-26.44129044 162.35404678 -26.44117462 163.32918732 -26.4410553 164.33387756 C-26.34714626 170.79637221 -25.26163751 174.98448332 -21.3125 180.25 C-15.41480317 184.71312192 -7.09469485 184.46789789 0 185 C0 191.6 0 198.2 0 205 C-13.35111496 205.46438661 -25.39159522 205.15100172 -36.06640625 195.984375 C-44.54849107 187.27952836 -47.4429898 177.95453423 -47.40625 166.0703125 C-47.41708618 165.03993866 -47.42792236 164.00956482 -47.43908691 162.94796753 C-47.47316703 159.67358065 -47.48889986 156.39954038 -47.5 153.125 C-47.51465846 148.81477555 -47.54850683 144.50531276 -47.59375 140.1953125 C-47.59072876 139.22208038 -47.58770752 138.24884827 -47.58459473 137.24612427 C-47.66279561 130.01916339 -48.30288479 122.39314494 -52.9375 116.5625 C-57.75205957 114.10609205 -62.72756764 113.15877634 -68 112 C-68 105.73 -68 99.46 -68 93 C-66.47375 92.7525 -64.9475 92.505 -63.375 92.25 C-58.7898026 91.31609841 -55.58258352 90.14568309 -52 87 C-48.87967835 81.94292697 -47.88402027 77.17023269 -47.8581543 71.29248047 C-47.84760262 69.93484085 -47.84760262 69.93484085 -47.83683777 68.54977417 C-47.83267349 67.58202057 -47.82850922 66.61426697 -47.82421875 65.6171875 C-47.80101014 63.54165664 -47.77689239 61.46613579 -47.75195312 59.390625 C-47.71695972 56.13893017 -47.68755224 52.88760175 -47.67407227 49.63574219 C-47.65846838 46.48327793 -47.61817396 43.33186819 -47.57421875 40.1796875 C-47.57612717 39.22407928 -47.57803558 38.26847107 -47.58000183 37.28390503 C-47.3860539 26.41678029 -43.842881 16.69292152 -36 9 C-24.63060987 0.26754405 -13.78739849 -0.35052708 0 0 Z " fill="#000000" transform="translate(68,0)"/>
<path d="M0 0 C13.35111496 -0.46438661 25.39159522 -0.15100172 36.06640625 9.015625 C44.54849107 17.72047164 47.4429898 27.04546577 47.40625 38.9296875 C47.41708618 39.96006134 47.42792236 40.99043518 47.43908691 42.05203247 C47.47316703 45.32641935 47.48889986 48.60045962 47.5 51.875 C47.51465846 56.18522445 47.54850683 60.49468724 47.59375 64.8046875 C47.59072876 65.77791962 47.58770752 66.75115173 47.58459473 67.75387573 C47.66279561 74.98083661 48.30288479 82.60685506 52.9375 88.4375 C57.75205957 90.89390795 62.72756764 91.84122366 68 93 C68 99.27 68 105.54 68 112 C65.1846875 112.5878125 65.1846875 112.5878125 62.3125 113.1875 C57.19210478 114.49470678 54.05739032 115.46322726 51 120 C48.07331949 126.57847631 47.57118006 132.72157977 47.59375 139.84375 C47.58291382 140.85288452 47.57207764 141.86201904 47.56091309 142.9017334 C47.52689045 146.10122172 47.5111082 149.30035525 47.5 152.5 C47.4853526 156.71908679 47.45155248 160.93739298 47.40625 165.15625 C47.40927124 166.10963257 47.41229248 167.06301514 47.41540527 168.04528809 C47.29361073 179.02183915 43.78884307 188.07082135 36.06640625 195.98046875 C25.40269625 205.15712928 13.34571582 205.46419881 0 205 C0 198.4 0 191.8 0 185 C3.0009375 184.8453125 3.0009375 184.8453125 6.0625 184.6875 C11.43362455 184.28422732 15.25649799 183.47487061 20 181 C20.99 180.67 21.98 180.34 23 180 C24.18391223 177.62374655 24.18391223 177.62374655 25 175 C25.33 174.01 25.66 173.02 26 172 C26.09915519 170.53952713 26.14548314 169.07511197 26.15771484 167.61132812 C26.16797699 166.72610474 26.17823914 165.84088135 26.18881226 164.92883301 C26.19611359 163.97263062 26.20341492 163.01642822 26.2109375 162.03125 C26.23902969 159.99478395 26.26769427 157.95832574 26.296875 155.921875 C26.33794068 152.72070738 26.37483689 149.51968221 26.40136719 146.31835938 C26.42923319 143.22234991 26.47512692 140.12699946 26.5234375 137.03125 C26.52669037 136.09124146 26.52994324 135.15123291 26.53329468 134.18273926 C26.71980283 123.93284087 28.63019645 114.51119067 36 107 C37.94678657 105.44168785 39.82570768 104.24245276 42 103 C41.319375 102.525625 40.63875 102.05125 39.9375 101.5625 C37.47549064 99.41478971 35.45674177 97.37220616 33.375 94.875 C32.80523437 94.19179687 32.23546875 93.50859375 31.6484375 92.8046875 C27.30546954 85.41546713 26.57320121 77.64986851 26.62890625 69.2421875 C26.6115355 67.21484196 26.59395101 65.18749825 26.57617188 63.16015625 C26.56609014 60.0092443 26.56250893 56.85844699 26.56420898 53.70751953 C26.56062732 50.63540429 26.5332594 47.56414875 26.50390625 44.4921875 C26.51208878 43.55865448 26.5202713 42.62512146 26.52870178 41.66329956 C26.44622121 34.36436884 24.74968835 29.02807598 19.80078125 23.578125 C15.97709674 21.4236361 12.50866605 21.09896796 8.1875 20.75 C5.485625 20.5025 2.78375 20.255 0 20 C0 13.4 0 6.8 0 0 Z " fill="#000000" transform="translate(164,0)"/>
<path d="M0 0 C3.15850062 2.75356464 3.90662809 4.34639662 4.5 8.5 C3.90211554 12.6851912 3.22291569 14.26052166 0 17 C-2.72722138 17.97360095 -5.11715222 18.30887655 -8 18 C-10.85993478 16.23535939 -12.49782849 15.00434303 -14 12 C-14.39069343 7.85864965 -14.43382227 5.68813188 -12.1875 2.125 C-8.28149586 -1.66940403 -5.0774203 -1.24708569 0 0 Z " fill="#000000" transform="translate(103,76)"/>
<path d="M0 0 C3.60549148 2.66492848 4.84539972 4.03804272 5.5625 8.5 C4.91877781 12.50538252 3.84054174 14.15945826 1 17 C-1.90295805 18.45147903 -3.77261779 18.37239025 -7 18 C-12.54361702 14.71489362 -12.54361702 14.71489362 -13.515625 11.0625 C-13.71660822 7.27253073 -13.209483 5.33950693 -11.1875 2.0625 C-7.48975665 -1.42394373 -4.72745778 -1.32368818 0 0 Z " fill="#000000" transform="translate(138,76)"/>
<path d="M0 0 C5.54361702 3.28510638 5.54361702 3.28510638 6.515625 6.9375 C6.71040126 10.61042381 6.17334303 12.68664914 4.375 15.9375 C1.43450829 18.4910849 -0.11285632 19 -4 19 C-7.97472063 17.47126129 -9.61853665 16.57219503 -12 13 C-12.46797583 8.78821757 -12.46565795 6.71400886 -10.125 3.125 C-6.80605027 -0.19394973 -4.65258252 -0.53683644 0 0 Z " fill="#000000" transform="translate(101,111)"/>
<path d="M0 0 C3.15850062 2.75356464 3.90662809 4.34639662 4.5 8.5 C3.90662809 12.65360338 3.15850062 14.24643536 0 17 C-3.94929279 18.14888518 -6.02958859 18.43129396 -9.8125 16.75 C-12 15 -12 15 -14 12 C-14.46362482 7.82737663 -14.4494094 5.71285629 -12.1875 2.125 C-8.28149586 -1.66940403 -5.0774203 -1.24708569 0 0 Z " fill="#000000" transform="translate(139,112)"/>
</svg>
